<svg width="640" height="640" viewBox="0 0 640 640" fill="none" xmlns="http://www.w3.org/2000/svg">
<rect width="640" height="640" rx="320" fill="#61A5C2"/>
<path d="M97.3044 235.847L91.4466 229.989L60 219.989C60 239.989 80 254.178 80 269.989C80 294.989 82.6385 324.989 95 344.989C107.283 364.862 127.378 394.544 219.665 404.795L150 444.989L70 399.989C65.8795 411.656 75.1108 437.989 85 449.989C97.3615 464.989 125 491.446 170 480C215 468.554 240 444.989 275 435L255 470L219.665 500L136.628 544.134C136.119 544.405 135.865 544.54 135.797 544.71C135.738 544.856 135.752 545.025 135.835 545.159C135.931 545.314 136.199 545.402 136.735 545.578C143.24 547.707 166.498 555 180 555C200 555 235 544.989 270 514.989C293.137 495.157 312.881 448.138 318.439 434.054C318.951 432.757 319.207 432.109 319.54 431.937C319.834 431.784 320.166 431.784 320.46 431.937C320.793 432.109 321.049 432.757 321.561 434.054C327.119 448.138 346.863 495.157 370 514.989C405 544.989 440 555 460 555C473.502 555 496.76 547.707 503.265 545.578C503.801 545.402 504.069 545.314 504.165 545.159C504.247 545.025 504.262 544.856 504.203 544.71C504.135 544.54 503.881 544.405 503.372 544.134L420.335 500L385 470L365 435C400 444.989 425 468.554 470 480C515 491.446 542.638 464.989 555 449.989C564.889 437.989 574.12 411.656 570 399.989L490 444.989L420.335 404.795C512.622 394.544 532.717 364.862 545 344.989C557.362 324.989 560 294.989 560 269.989C560 254.178 580 239.989 580 219.989L548.553 229.989L542.696 235.847C533.641 244.902 528.553 257.183 528.553 269.989C528.553 306.476 500.638 336.442 465 339.696C475 324.404 500 294.989 500 239.989C500 219.989 510 174.989 515 154.989C508.333 156.656 492 171.989 480 219.989C465 279.989 418.553 331.411 409.975 331.411C398.537 319.972 399.024 301.53 406.685 287.283C414.257 273.202 418.553 257.097 418.553 239.989C418.553 184.761 375.228 140 320 140C264.772 140 221.447 184.761 221.447 239.989C221.447 257.097 225.743 273.202 233.315 287.283C240.976 301.53 241.463 319.972 230.025 331.411C221.447 331.411 175 279.989 160 219.989C148 171.989 131.667 156.656 125 154.989C130 174.989 140 219.989 140 239.989C140 294.989 165 324.404 175 339.696C139.362 336.442 111.447 306.476 111.447 269.989C111.447 257.183 106.359 244.902 97.3044 235.847Z" fill="#A9D6E5"/>
<path fill-rule="evenodd" clip-rule="evenodd" d="M320 150C270.294 150 230 190.294 230 240C230 255.415 233.867 269.897 240.676 282.558C249.578 299.113 251.316 322.827 235.65 338.492C228.282 345.861 218.288 350 207.868 350H180C135.817 350 100 314.183 100 270C100 260.174 95.7584 250.826 88.3636 244.356L63.4151 222.526C59.2587 218.889 58.8375 212.571 62.4744 208.415C66.1112 204.259 72.4288 203.837 76.5852 207.474L101.534 229.304C113.269 239.572 120 254.407 120 270C120 303.137 146.863 330 180 330H207.868C212.984 330 217.89 327.968 221.508 324.35C228.718 317.14 229.482 303.969 223.061 292.03C214.725 276.529 210 258.802 210 240C210 179.249 259.249 130 320 130C380.751 130 430 179.249 430 240C430 258.802 425.275 276.529 416.939 292.03C410.519 303.969 411.282 317.14 418.493 324.35C422.11 327.968 427.016 330 432.132 330H460C493.137 330 520 303.137 520 270C520 254.407 526.731 239.572 538.467 229.304L563.415 207.474C567.571 203.837 573.889 204.259 577.526 208.415C581.163 212.571 580.742 218.889 576.585 222.526L551.637 244.356C544.242 250.826 540 260.174 540 270C540 314.183 504.183 350 460 350H432.132C421.712 350 411.719 345.861 404.35 338.492C388.685 322.827 390.422 299.113 399.324 282.558C406.133 269.897 410 255.415 410 240C410 190.294 369.706 150 320 150ZM122.929 152.929C126.834 149.024 133.166 149.024 137.071 152.929C151.44 167.297 161.633 185.301 166.561 205.014L169.702 217.575C171.041 222.933 167.783 228.362 162.425 229.701C157.068 231.041 151.638 227.783 150.299 222.425L147.159 209.865C143.109 193.668 134.734 178.876 122.929 167.071C119.024 163.166 119.024 156.834 122.929 152.929ZM517.071 152.929C520.976 156.834 520.976 163.166 517.071 167.071C505.266 178.876 496.891 193.668 492.842 209.865L489.702 222.425C488.362 227.783 482.933 231.041 477.575 229.701C472.217 228.362 468.959 222.933 470.299 217.575L473.439 205.014C478.367 185.301 488.561 167.297 502.929 152.929C506.834 149.024 513.166 149.024 517.071 152.929ZM247.988 383.984C251.311 388.396 250.428 394.666 246.016 397.988L205.402 428.575L205.287 428.656C186.882 441.726 167.06 449.531 147.523 449.938C127.729 450.351 108.99 443.132 93.4316 427.574L72.9291 407.071C69.0238 403.166 69.0238 396.834 72.9291 392.929C76.8343 389.024 83.166 389.024 87.0712 392.929L107.574 413.431C119.352 425.21 132.862 430.24 147.106 429.943C161.575 429.641 177.542 423.804 193.596 412.429L233.984 382.012C238.396 378.689 244.666 379.572 247.988 383.984ZM392.012 383.984C395.335 379.572 401.604 378.689 406.016 382.012L446.405 412.429C462.459 423.804 478.426 429.641 492.894 429.943C507.139 430.24 520.648 425.21 532.427 413.431L552.929 392.929C556.834 389.024 563.166 389.024 567.071 392.929C570.976 396.834 570.976 403.166 567.071 407.071L546.569 427.574C531.01 443.132 512.271 450.351 492.477 449.938C472.94 449.531 453.118 441.726 434.713 428.656L434.599 428.575L393.984 397.988C389.573 394.666 388.69 388.396 392.012 383.984ZM295.735 411.808C300.259 414.975 301.36 421.21 298.192 425.735L267.38 469.753C252.229 491.397 231.631 508.654 207.673 519.78L154.808 548.768C149.966 551.424 143.887 549.651 141.232 544.808C138.576 539.966 140.349 533.887 145.192 531.232L198.658 501.913L198.972 501.768C219.855 492.13 237.806 477.125 250.995 458.284L281.808 414.265C284.975 409.741 291.21 408.641 295.735 411.808ZM344.266 411.808C348.79 408.641 355.025 409.741 358.192 414.265L389.005 458.284C402.194 477.125 420.146 492.13 441.028 501.768L441.342 501.913L494.808 531.232C499.651 533.887 501.424 539.966 498.768 544.808C496.113 549.651 490.035 551.424 485.192 548.768L432.327 519.78C408.369 508.654 387.771 491.397 372.621 469.753L341.808 425.735C338.641 421.21 339.741 414.975 344.266 411.808Z" fill="#012A4A"/>
<path d="M305 280C305 291.046 301.046 295 290 295C278.954 295 270 291.046 270 280C270 268.954 278.954 260 290 260C301.046 260 305 268.954 305 280Z" fill="#012A4A"/>
<path d="M370 280C370 291.046 361.046 295 350 295C338.954 295 335 291.046 335 280C335 268.954 338.954 260 350 260C361.046 260 370 268.954 370 280Z" fill="#012A4A"/>
</svg>
