<svg width="640" height="640" viewBox="0 0 640 640" fill="none" xmlns="http://www.w3.org/2000/svg">
<rect width="640" height="640" fill="url(#paint0_linear_5591_11518)"/>
<path fill-rule="evenodd" clip-rule="evenodd" d="M320 155C273.056 155 235 193.056 235 240C235 254.568 238.653 268.239 245.08 280.19C254.603 297.898 256.965 324.248 239.185 342.028C230.88 350.334 219.614 355 207.868 355H180C133.056 355 95.0002 316.944 95.0002 270C95.0002 261.616 91.3809 253.64 85.0711 248.119L60.1226 226.289C53.8881 220.833 53.2563 211.357 58.7116 205.122C64.1668 198.888 73.6432 198.256 79.8778 203.711L104.826 225.541C117.646 236.759 125 252.965 125 270C125 300.376 149.625 325 180 325H207.868C211.658 325 215.292 323.495 217.972 320.815C223.069 315.718 224.457 305.183 218.658 294.398C209.94 278.187 205 259.648 205 240C205 176.487 256.487 125 320 125C383.513 125 435 176.487 435 240C435 259.648 430.06 278.187 421.343 294.398C415.543 305.183 416.932 315.718 422.028 320.815C424.708 323.495 428.342 325 432.132 325H460C490.376 325 515 300.376 515 270C515 252.965 522.354 236.759 535.174 225.541L560.123 203.711C566.357 198.256 575.834 198.888 581.289 205.122C586.744 211.357 586.112 220.833 579.878 226.289L554.929 248.119C548.62 253.64 545 261.616 545 270C545 316.944 506.944 355 460 355H432.132C420.386 355 409.121 350.334 400.815 342.028C383.035 324.248 385.398 297.898 394.921 280.19C401.348 268.239 405 254.568 405 240C405 193.056 366.944 155 320 155ZM119.394 149.393C125.251 143.536 134.749 143.536 140.607 149.393C155.616 164.403 166.264 183.209 171.412 203.802L174.552 216.362C176.562 224.399 171.675 232.543 163.638 234.552C155.601 236.561 147.457 231.675 145.448 223.638L142.308 211.078C138.479 195.76 130.558 181.771 119.394 170.607C113.536 164.749 113.536 155.251 119.394 149.393ZM520.607 149.393C526.465 155.251 526.465 164.749 520.607 170.607C509.442 181.771 501.522 195.76 497.692 211.078L494.552 223.638C492.543 231.675 484.399 236.561 476.362 234.552C468.325 232.543 463.439 224.399 465.448 216.362L468.588 203.802C473.736 183.209 484.384 164.403 499.394 149.393C505.251 143.536 514.749 143.536 520.607 149.393ZM251.982 380.976C256.966 387.594 255.642 396.998 249.024 401.982L208.354 432.611L208.182 432.733C189.199 446.213 168.424 454.503 147.628 454.937C126.446 455.379 106.4 447.613 89.8961 431.109L69.3936 410.607C63.5357 404.749 63.5357 395.251 69.3936 389.393C75.2515 383.536 84.7489 383.536 90.6068 389.393L111.109 409.896C121.942 420.729 134.145 425.212 147.002 424.944C160.198 424.668 175.192 419.328 190.646 408.39L230.976 378.018C237.594 373.034 246.999 374.359 251.982 380.976ZM388.018 380.976C393.002 374.359 402.406 373.034 409.024 378.018L449.354 408.39C464.809 419.328 479.803 424.668 492.998 424.944C505.855 425.212 518.058 420.729 528.891 409.896L549.394 389.393C555.251 383.536 564.749 383.536 570.607 389.393C576.465 395.251 576.465 404.749 570.607 410.607L550.104 431.109C533.601 447.613 513.554 455.379 492.373 454.937C471.577 454.503 450.802 446.213 431.818 432.733L431.647 432.611L390.976 401.982C384.359 396.998 383.034 387.594 388.018 380.976ZM298.602 407.712C305.389 412.462 307.039 421.815 302.289 428.602L271.476 472.62C255.852 494.94 234.623 512.744 209.932 524.244L157.212 553.152C149.949 557.136 140.831 554.476 136.848 547.212C132.865 539.948 135.524 530.831 142.788 526.848L196.406 497.446L196.877 497.229C216.956 487.961 234.217 473.533 246.899 455.416L277.712 411.398C282.462 404.611 291.815 402.961 298.602 407.712ZM341.398 407.712C348.185 402.961 357.538 404.611 362.289 411.398L393.102 455.416C405.783 473.533 423.044 487.961 443.123 497.229L443.594 497.446L497.212 526.848C504.476 530.831 507.136 539.948 503.153 547.212C499.169 554.476 490.052 557.136 482.788 553.152L430.069 524.244C405.377 512.744 384.148 494.94 368.525 472.62L337.712 428.602C332.961 421.815 334.612 412.462 341.398 407.712Z" fill="url(#paint1_linear_5591_11518)"/>
<path d="M305 280C305 291.046 301.046 295 290 295C278.955 295 270 291.046 270 280C270 268.954 278.955 260 290 260C301.046 260 305 268.954 305 280Z" fill="url(#paint2_linear_5591_11518)"/>
<path d="M370 280C370 291.046 361.046 295 350 295C338.955 295 335 291.046 335 280C335 268.954 338.955 260 350 260C361.046 260 370 268.954 370 280Z" fill="url(#paint3_linear_5591_11518)"/>
<defs>
<linearGradient id="paint0_linear_5591_11518" x1="320" y1="-412.754" x2="320" y2="1045.8" gradientUnits="userSpaceOnUse">
<stop stop-color="white"/>
<stop offset="1" stop-color="#EFEFEF"/>
</linearGradient>
<linearGradient id="paint1_linear_5591_11518" x1="320" y1="125" x2="320" y2="555.003" gradientUnits="userSpaceOnUse">
<stop stop-color="#2D2D2D"/>
<stop offset="1"/>
</linearGradient>
<linearGradient id="paint2_linear_5591_11518" x1="320" y1="125" x2="320" y2="555.003" gradientUnits="userSpaceOnUse">
<stop stop-color="#2D2D2D"/>
<stop offset="1"/>
</linearGradient>
<linearGradient id="paint3_linear_5591_11518" x1="320" y1="125" x2="320" y2="555.003" gradientUnits="userSpaceOnUse">
<stop stop-color="#2D2D2D"/>
<stop offset="1"/>
</linearGradient>
</defs>
</svg>
